<svg width="330" height="156" viewBox="0 0 330 156" fill="none" xmlns="http://www.w3.org/2000/svg">
<path d="M125.493 106.723C125.493 107.828 126.389 108.723 127.493 108.723H134.909C136.013 108.723 136.909 107.828 136.909 106.723V49.0283C136.909 47.9238 136.013 47.0283 134.909 47.0283H127.493C126.389 47.0283 125.493 47.9238 125.493 49.0283V106.723Z" fill="black"/>
<path fill-rule="evenodd" clip-rule="evenodd" d="M153.688 106.919C157.13 108.961 161.131 109.983 165.691 109.983C170.224 109.983 174.211 108.975 177.653 106.961C181.122 104.918 183.822 102.106 185.753 98.5248C187.711 94.9155 188.691 90.7605 188.691 86.0599C188.691 81.3873 187.725 77.2603 185.795 73.6789C183.864 70.0695 181.164 67.2436 177.695 65.2011C174.253 63.1586 170.252 62.1373 165.691 62.1373C161.215 62.1373 157.256 63.1446 153.814 65.1591C150.373 67.1737 147.672 69.9856 145.714 73.595C143.755 77.1764 142.776 81.3314 142.776 86.0599C142.776 90.7325 143.727 94.8735 145.63 98.4829C147.561 102.064 150.247 104.876 153.688 106.919ZM173.875 95.629C172.085 98.0912 169.357 99.3223 165.691 99.3223C162.138 99.3223 159.438 98.1331 157.591 95.7549C155.773 93.3486 154.863 90.117 154.863 86.0599C154.863 83.4298 155.241 81.1215 155.996 79.135C156.78 77.1484 157.969 75.5955 159.564 74.4763C161.159 73.3572 163.201 72.7976 165.691 72.7976C169.301 72.7976 172.015 74.0007 173.833 76.4069C175.68 78.8132 176.603 82.0308 176.603 86.0599C176.603 89.9491 175.694 93.1388 173.875 95.629Z" fill="black"/>
<path fill-rule="evenodd" clip-rule="evenodd" d="M206.314 109.983C203.068 109.983 200.312 109.367 198.046 108.136C195.808 106.877 194.101 105.212 192.926 103.141C191.778 101.043 191.205 98.7347 191.205 96.2165C191.205 94.118 191.527 92.2014 192.17 90.4667C192.814 88.732 193.849 87.2071 195.276 85.892C196.731 84.549 198.675 83.4298 201.11 82.5345C202.788 81.9189 204.789 81.3733 207.111 80.8977C209.434 80.422 212.064 79.9743 215.002 79.5546C216.731 79.2912 218.562 79.0131 220.494 78.7205C220.277 76.8518 219.664 75.4231 218.653 74.4344C217.366 73.1753 215.211 72.5457 212.19 72.5457C210.511 72.5457 208.762 72.9515 206.943 73.7629C205.125 74.5743 203.852 76.0152 203.124 78.0857L192.8 74.8121C193.947 71.0628 196.101 68.0131 199.263 65.6628C202.425 63.3125 206.734 62.1373 212.19 62.1373C216.191 62.1373 219.744 62.7529 222.85 63.984C225.956 65.2151 228.306 67.3415 229.901 70.3633C230.796 72.0421 231.328 73.7209 231.496 75.3997C231.663 77.0784 231.747 78.9531 231.747 81.0236V108.723H221.759V103.159C219.955 105.284 218.039 106.887 216.009 107.968C213.463 109.311 210.231 109.983 206.314 109.983ZM208.748 101.001C210.847 101.001 212.609 100.637 214.036 99.9098C215.491 99.1544 216.638 98.301 217.478 97.3497C218.345 96.3984 218.933 95.601 219.24 94.9574C219.828 93.7263 220.164 92.2994 220.248 90.6766C220.316 89.6707 220.363 88.7688 220.39 87.9707C218.51 88.2918 216.896 88.5782 215.547 88.8299C213.449 89.1936 211.756 89.5294 210.469 89.8372C209.182 90.1449 208.049 90.4807 207.069 90.8444C205.95 91.2921 205.041 91.7817 204.341 92.3134C203.67 92.817 203.166 93.3766 202.83 93.9921C202.523 94.6077 202.369 95.2932 202.369 96.0486C202.369 97.0839 202.621 97.9792 203.124 98.7347C203.656 99.4622 204.397 100.022 205.349 100.413C206.3 100.805 207.433 101.001 208.748 101.001Z" fill="black"/>
<path fill-rule="evenodd" clip-rule="evenodd" d="M245.892 106.835C249.025 108.933 252.677 109.983 256.846 109.983C261.35 109.983 265.114 108.933 268.136 106.835C268.466 106.605 268.788 106.366 269.101 106.118V108.723H279.174V48.2874H267.674V64.8582C264.853 63.0443 261.439 62.1373 257.433 62.1373C253.096 62.1373 249.319 63.1726 246.102 65.2431C242.884 67.3136 240.38 70.1535 238.589 73.7629C236.826 77.3443 235.945 81.4433 235.945 86.0599C235.945 90.5926 236.812 94.6637 238.547 98.273C240.31 101.882 242.758 104.736 245.892 106.835ZM269.101 86.0599C269.101 88.8019 268.765 91.2082 268.094 93.2787C267.422 95.3492 266.317 96.958 264.778 98.1051C263.267 99.2523 261.239 99.8259 258.692 99.8259C256.23 99.8259 254.216 99.2103 252.649 97.9792C251.082 96.7481 249.921 95.0973 249.165 93.0268C248.41 90.9284 248.032 88.6061 248.032 86.0599C248.032 83.5417 248.424 81.2474 249.207 79.1769C249.991 77.0785 251.194 75.4137 252.817 74.1826C254.467 72.9235 256.566 72.2939 259.112 72.2939C261.49 72.2939 263.407 72.8675 264.862 74.0147C266.345 75.1618 267.422 76.7707 268.094 78.8412C268.765 80.9117 269.101 83.3179 269.101 86.0599Z" fill="black"/>
<path fill-rule="evenodd" clip-rule="evenodd" d="M51.4202 44.9863C50.5693 46.6563 50.5693 48.8424 50.5693 53.2147V102.956C50.5693 107.328 50.5693 109.514 51.4202 111.184C52.1687 112.653 53.363 113.848 54.832 114.596C56.502 115.447 58.6881 115.447 63.0604 115.447H90.4962C94.8685 115.447 97.0546 115.447 98.7246 114.596C100.194 113.848 101.388 112.653 102.136 111.184C102.987 109.514 102.987 107.328 102.987 102.956V47.8614C102.987 45.3629 102.987 44.1137 102.501 43.1594C102.073 42.32 101.391 41.6376 100.551 41.2099C99.5972 40.7236 98.3479 40.7236 95.8495 40.7236H63.0604C58.6881 40.7236 56.502 40.7236 54.832 41.5745C53.363 42.323 52.1687 43.5173 51.4202 44.9863ZM79.1975 74.0401C78.0182 75.7165 75.5398 75.7165 74.3605 74.0401L58.9236 52.0965C57.54 50.1297 58.9423 47.4155 61.3421 47.4155L92.2159 47.4155C94.6157 47.4155 96.018 50.1297 94.6343 52.0965L79.1975 74.0401ZM74.3609 82.1313C75.5401 80.455 78.0186 80.455 79.1978 82.1313L94.6347 104.075C96.0183 106.042 94.616 108.756 92.2162 108.756H61.3425C58.9427 108.756 57.5404 106.042 58.924 104.075L74.3609 82.1313Z" fill="black"/>
</svg>
